<svg xmlns="http://www.w3.org/2000/svg" viewBox="0 0 1024 1024" width="100%" height="100%" preserveAspectRatio="xMidYMid meet">
<defs>
<linearGradient id="gbr" x1="0" y1="0" x2="0.65" y2="1">
<stop offset="0%" stop-color="#9db4cc"/><stop offset="55%" stop-color="#46648a"/><stop offset="100%" stop-color="#17293f"/></linearGradient>
<radialGradient id="glbr" cx="32%" cy="6%" r="80%">
<stop offset="0%" stop-color="#ffffff" stop-opacity=".26"/><stop offset="100%" stop-color="#ffffff" stop-opacity="0"/></radialGradient>

</defs>
<rect x="0" y="0" width="1024" height="1024" fill="url(#gbr)"/>
<g id="art" transform="translate(2.64,2.64) scale(1.9897)">


<rect x="62" y="104" width="388" height="304" rx="30" fill="#fdfbf6"/>
<rect x="62" y="104" width="388" height="304" rx="30" fill="none" stroke="#ece5d6" stroke-width="3"/>
<rect x="110" y="268" width="52" height="96" rx="12" fill="#0f9d9d"/><rect x="110" y="268" width="52" height="18" rx="9" fill="#fff" opacity=".2"/><rect x="190" y="224" width="52" height="140" rx="12" fill="#1abfae"/><rect x="190" y="224" width="52" height="18" rx="9" fill="#fff" opacity=".2"/><rect x="270" y="246" width="52" height="118" rx="12" fill="#0f9d9d"/><rect x="270" y="246" width="52" height="18" rx="9" fill="#fff" opacity=".2"/><rect x="350" y="188" width="52" height="176" rx="12" fill="#e0a83a"/><rect x="350" y="188" width="52" height="18" rx="9" fill="#fff" opacity=".2"/>
<rect x="96" y="364" width="320" height="6" rx="3" fill="#c3cfdd"/>
<path d="M136 232 L214 196 L292 210 L370 150" stroke="#e2673f" stroke-width="9" fill="none" stroke-linecap="round" stroke-linejoin="round"/><circle cx="136" cy="232" r="11" fill="#fdfbf6"/><circle cx="136" cy="232" r="6.5" fill="#e2673f"/><circle cx="214" cy="196" r="11" fill="#fdfbf6"/><circle cx="214" cy="196" r="6.5" fill="#e2673f"/><circle cx="292" cy="210" r="11" fill="#fdfbf6"/><circle cx="292" cy="210" r="6.5" fill="#e2673f"/><circle cx="370" cy="150" r="11" fill="#fdfbf6"/><circle cx="370" cy="150" r="6.5" fill="#e2673f"/>

</g>
<rect x="0" y="0" width="1024" height="1024" fill="url(#glbr)"/>

</svg>